<svg xmlns="http://www.w3.org/2000/svg" xmlns:xlink="http://www.w3.org/1999/xlink" version="1.1" id="Layer_1" x="0px" y="0px" viewBox="0 0 491.1 38.3" enable-background="new 0 0 491.1 38.3" xml:space="preserve">
<g>
	<path fill="#585757" d="M458.9 36h8.8V25.6l3.6-3.8l9 14.1h10.9l-14-20.4l12.4-13.2h-10.9l-11.1 12.9V2.4h-8.8V36z M420.1 9.9h4.1 c6 0 9.3 3 9.3 9.1c0 6.7-2.6 9.3-9.3 9.5h-4.1V9.9z M411.3 36h14.5c10.2 0 16.5-5.9 16.5-17c0-10.4-6.2-16.7-16.5-16.7h-14.5V36z M336.3 36h9l2.1-6h11.7l2.1 6h9.1L357.8 2.4h-8.9L336.3 36z M353.3 11.7L353.3 11.7l3.8 11.8h-7.6L353.3 11.7z M328.5 2.4h-28.8 v7.5h10V36h8.8V9.9h10V2.4z M257.8 36h9l2.1-6h11.7l2.1 6h9.1L279.2 2.4h-8.9L257.8 36z M274.7 11.7L274.7 11.7l3.8 11.8h-7.6 L274.7 11.7z M222.4 9.9h4.1c6 0 9.3 3 9.3 9.1c0 6.7-2.6 9.3-9.3 9.5h-4.1V9.9z M213.7 36h14.5c10.2 0 16.5-5.9 16.5-17 c0-10.4-6.2-16.7-16.5-16.7h-14.5V36z M140.3 36h8.2V15h0.1l11.7 21h9V2.4h-8.2v20.7H161L149.3 2.4h-9V36z M96.3 36h27.3v-7.5 h-18.5V22h16.5v-6.8h-16.5V9.4h18v-7H96.3V36z M61.1 9.4h5.9c2.7 0 4.7 1.3 4.7 4.4c0 3.1-2 4.2-4.7 4.2h-5.9V9.4z M52.3 36h8.8 V24.8h7.2c7.4 0 12.2-3.2 12.2-11.6c0-8-5.9-10.8-12.2-10.8h-16V36z"/>
	<path fill="#C6361A" d="M19.4 38.3V30c5.3-0.7 7.4-5.8 7.4-10.9S24.7 9 19.4 8.3V0c10.9 0.6 17 8.9 17 19.2 C36.3 29.5 30.2 37.8 19.4 38.3 M9.6 19.2C9.6 14.1 11.7 9 17 8.3V0C6.1 0.6 0 8.9 0 19.2s6.1 18.6 17 19.2V30 C11.7 29.4 9.6 24.3 9.6 19.2"/>
</g>
</svg>
